# xmcd
#
# Track frame offsets:
#	150
#	15072
#	28325
#
# Disc length: 661 seconds
#
# Revision: 0
# Processed by: cddbd v1.4PL0 Copyright (c) Steve Scherf et al.
# Submitted via: dBpowerAMP V4.0
#
DISCID=15029303
DTITLE=Garth Brooks - Christmas Compilation
DYEAR=1992
DGENRE=Country
TTITLE0=Unto To You This Night
TTITLE1=White Christmas
TTITLE2=The Gift
EXTD=
EXTT0=
EXTT1=
EXTT2=
PLAYORDER=
